<?xml version="1.0" encoding="UTF-8"?>
<svg xmlns="http://www.w3.org/2000/svg" xmlns:xlink="http://www.w3.org/1999/xlink" viewBox="0 0 250 250" width="250px" height="250px">
<g id="surface58581614">
<path style=" stroke:none;fill-rule:nonzero;fill:rgb(50.588238%,47.450981%,47.450981%);fill-opacity:1;" d="M 105 15 C 58.105469 15 20 53.105469 20 100 C 20 146.894531 58.105469 185 105 185 C 123.554688 185 140.703125 179.023438 154.6875 168.90625 L 220.46875 234.53125 L 234.53125 220.46875 L 169.53125 155.3125 C 182.304688 140.429688 190 121.113281 190 100 C 190 53.105469 151.894531 15 105 15 Z M 105 25 C 146.484375 25 180 58.515625 180 100 C 180 141.484375 146.484375 175 105 175 C 63.515625 175 30 141.484375 30 100 C 30 58.515625 63.515625 25 105 25 Z M 105 25 "/>
</g>
</svg>
